<svg xmlns="http://www.w3.org/2000/svg" xmlns:xlink="http://www.w3.org/1999/xlink" version="1.1" width="595.276pt" height="306.992pt" viewBox="0 0 595.276 306.992">
<defs>
<clipPath id="clip_0">
<path transform="matrix(1,0,0,-1,0,306.992)" d="M0 306.992H595.276V0H0Z"/>
</clipPath>
</defs>
<g id="layer_1" data-name="">
<g clip-path="url(#clip_0)">
<path transform="matrix(1,0,0,-1,187.71,245.7642)" d="M0 0C-8.683-2.554-17.857-3.949-27.356-3.949-80.904-3.949-124.469 39.616-124.469 93.164-124.469 146.712-80.904 190.277-27.356 190.277-21.802 190.277-16.363 189.783-11.061 188.883-6.513 196.994-1.336 204.7 4.394 211.956-5.741 214.667-16.378 216.134-27.356 216.134-95.162 216.134-150.326 160.97-150.326 93.164-150.326 25.358-95.162-29.806-27.356-29.806-11.36-29.806 3.916-26.704 17.946-21.122 11.422-14.576 5.438-7.499 0 0" fill="#005de5"/>
<path transform="matrix(1,0,0,-1,283.3242,152.6002)" d="M0 0C0 43.16-22.369 81.17-56.102 103.12-61.897 96.72-67.1 89.777-71.636 82.382-44.174 65.207-25.857 34.71-25.857 0-25.857-30.64-40.136-57.994-62.372-75.805-57.017-82.62-51.045-88.92-44.532-94.627-17.345-72.052 0-38.016 0 0" fill="#005de5"/>
<path transform="matrix(1,0,0,-1,339.6933,157.7628)" d="M0 0-4.383 13.151-8.709 0ZM2.827-8.651H-11.592L-13.784-15.286H-25.667L-10.844 25.379H2.192L16.958-15.286H5.019Z" fill="#005de5"/>
<path transform="matrix(1,0,0,-1,372.684,163.87871)" d="M0 0H16.9V-9.17H-12.689V-.574L4.039 22.383H-12.689V31.495H16.9V22.902Z" fill="#005de5"/>
<path transform="matrix(1,0,0,-1,427.3073,145.9378)" d="M0 0C0 2.961-1.597 4.442-4.789 4.442H-9.286V-4.384H-4.789C-1.597-4.384 0-2.922 0 0M9.833-6.721C8.699-8.74 6.988-10.356 4.699-11.565 2.413-12.778-.386-13.383-3.692-13.383H-9.286V-27.111H-20.592V13.554H-3.692C-.424 13.554 2.355 12.976 4.643 11.825 6.93 10.67 8.651 9.073 9.804 7.035 10.959 4.996 11.534 2.651 11.534 0 11.534-2.461 10.966-4.701 9.833-6.721" fill="#005de5"/>
<path transform="matrix(1,0,0,-1,466.2976,157.7628)" d="M0 0-4.384 13.151-8.709 0ZM2.827-8.651H-11.592L-13.784-15.286H-25.667L-10.844 25.379H2.192L16.958-15.286H5.019Z" fill="#005de5"/>
<path transform="matrix(1,0,0,-1,523.9188,132.3842)" d="M0 0-14.306-27.743V-40.665H-25.667V-27.743L-39.973 0H-27.053L-19.9-15.689-12.747 0Z" fill="#005de5"/>
<path transform="matrix(1,0,0,-1,531.0715,170.07611)" d="M0 0C-3.039 2.248-4.672 5.469-4.903 9.658H7.151C7.267 8.236 7.69 7.197 8.42 6.546 9.151 5.891 10.092 5.566 11.247 5.566 12.284 5.566 13.141 5.825 13.813 6.345 14.486 6.864 14.823 7.585 14.823 8.507 14.823 9.697 14.265 10.62 13.151 11.275 12.034 11.93 10.228 12.658 7.728 13.468 5.075 14.352 2.932 15.205 1.296 16.034-.337 16.86-1.76 18.073-2.971 19.666-4.182 21.263-4.789 23.348-4.789 25.925-4.789 28.541-4.135 30.781-2.827 32.646-1.519 34.51 .289 35.925 2.595 36.886 4.903 37.847 7.517 38.328 10.439 38.328 15.17 38.328 18.947 37.219 21.774 35.01 24.6 32.797 26.109 29.692 26.301 25.696H14.015C13.976 26.925 13.602 27.847 12.891 28.464 12.18 29.08 11.265 29.386 10.151 29.386 9.304 29.386 8.612 29.134 8.075 28.638 7.536 28.138 7.267 27.425 7.267 26.503 7.267 25.731 7.564 25.069 8.16 24.514 8.757 23.956 9.498 23.476 10.381 23.069 11.265 22.666 12.573 22.158 14.304 21.542 16.879 20.658 19.005 19.782 20.677 18.918 22.35 18.053 23.791 16.84 25.003 15.282 26.214 13.728 26.82 11.755 26.82 9.372 26.82 6.949 26.214 4.775 25.003 2.853 23.791 .93 22.042-.589 19.755-1.701 17.466-2.818 14.765-3.376 11.651-3.376 6.92-3.376 3.037-2.252 0 0" fill="#005de5"/>
</g>
</g>
</svg>
