<?xml version="1.0" encoding="utf-8"?>
<!-- Generator: Adobe Illustrator 26.0.3, SVG Export Plug-In . SVG Version: 6.00 Build 0)  -->
<svg version="1.1" id="Layer_1" xmlns="http://www.w3.org/2000/svg" xmlns:xlink="http://www.w3.org/1999/xlink" x="0px" y="0px"
	 viewBox="0 0 473.3 226.3" style="enable-background:new 0 0 473.3 226.3;" xml:space="preserve">
<style type="text/css">
	.st0{fill:#FFF;}
</style>
<path class="st0" d="M138.3,198.9c-47.3,13.9-97-13.1-110.9-60.5s13.1-97,60.5-110.9c13.1-3.9,26.9-4.7,40.3-2.4
	c4.2-7.4,8.9-14.5,14.2-21.2C82-12.3,20,23.5,3.8,83.9s19.6,122.4,80,138.6c23.5,6.3,48.4,4.9,71.1-4.1
	C148.8,212.3,143.3,205.8,138.3,198.9z"/>
<path class="st0" d="M226.3,113.2c0-38.3-19.4-74-51.6-94.9c-5.3,5.9-10.1,12.3-14.3,19.1c41.8,26,54.7,81,28.7,122.9
	c-5.4,8.6-12.2,16.3-20.2,22.7c4.9,6.3,10.4,12.1,16.4,17.3C211.3,178.8,226.3,146.8,226.3,113.2z"/>
<path class="st0" d="M275.1,128.2h-13.3l-2,6.1h-10.9l13.6-37.4h12l13.6,37.4h-11L275.1,128.2z M272.5,120.2l-4-12.1l-4,12.1H272.5z
	"/>
<path class="st0" d="M302.9,125.8h15.5v8.5h-27.2v-7.9l15.4-21.1h-15.4v-8.4h27.2v7.9L302.9,125.8z"/>
<path class="st0" d="M362.2,115.5c-1.1,1.9-2.7,3.5-4.7,4.5c-2.4,1.2-5,1.8-7.7,1.7h-5.1v12.7h-10.4V96.9h15.6
	c2.6-0.1,5.3,0.5,7.7,1.6c2,1,3.7,2.5,4.8,4.4c1.1,2,1.6,4.2,1.6,6.4C363.8,111.5,363.3,113.6,362.2,115.5z M353.1,109.3
	c0-2.7-1.5-4.1-4.4-4.1h-4.1v8.1h4.2C351.7,113.4,353.1,112,353.1,109.3z"/>
<path class="st0" d="M391.6,128.2h-13.3l-2,6.1h-10.9L379,96.9h12l13.6,37.4h-11L391.6,128.2z M389,120.2l-4-12.1l-4,12.1H389z"/>
<path class="st0" d="M442,96.9l-13.2,25.5v11.9h-10.5v-11.9l-13.2-25.5h11.9l6.6,14.4l6.6-14.4H442z"/>
<path class="st0" d="M448.6,131.5c-2.8-2.1-4.5-5.4-4.5-8.9h11.1c0,1.1,0.4,2.1,1.2,2.9c1.4,1.2,3.5,1.2,5,0.2c0.6-0.5,1-1.2,0.9-2
	c0-1.1-0.6-2.1-1.5-2.5c-1.6-0.8-3.3-1.5-5-2c-2-0.6-4-1.4-6-2.4c-1.5-0.8-2.9-2-3.9-3.4c-1.2-1.7-1.8-3.7-1.7-5.8
	c-0.1-2.2,0.6-4.4,1.8-6.2c1.3-1.8,3-3.1,5-3.9c2.3-0.9,4.7-1.4,7.2-1.3c4.3,0,7.8,1,10.4,3c2.6,2.1,4.1,5.2,4.2,8.6h-11.3
	c0-1-0.3-1.9-1-2.6c-0.7-0.6-1.6-0.9-2.5-0.9c-0.7,0-1.4,0.2-1.9,0.7c-0.5,0.5-0.8,1.3-0.7,2c0,0.7,0.3,1.4,0.8,1.8
	c0.6,0.6,1.3,1,2,1.3c0.8,0.4,2,0.8,3.6,1.4c2,0.7,4,1.5,5.9,2.4c1.6,0.8,2.9,1.9,4,3.3c1.2,1.6,1.7,3.5,1.7,5.4
	c0,2.1-0.6,4.2-1.7,6c-1.2,1.8-2.9,3.3-4.8,4.2c-2.3,1.1-4.9,1.6-7.5,1.5C455.5,134.8,451.7,133.7,448.6,131.5z"/>
<path class="st0" d="M259.5,155.1c-1.2,0.9-2.6,1.4-4.1,1.3h-3.3v7h-1.6v-16.2h4.9c1.5-0.1,2.9,0.3,4.1,1.3
	C261.3,150.2,261.3,153.2,259.5,155.1L259.5,155.1z M259.2,151.7c0.1-0.9-0.3-1.8-0.9-2.5c-0.8-0.6-1.9-0.9-2.9-0.8h-3.3v6.5h3.3
	C258,155,259.2,153.9,259.2,151.7L259.2,151.7z"/>
<path class="st0" d="M263.6,153.5c0.5-0.9,1.2-1.7,2.1-2.3c1-0.5,2-0.8,3.1-0.8c1.1,0,2.2,0.3,3.1,0.8c0.8,0.5,1.5,1.2,1.9,2.1v-2.8
	h1.6v12.7h-1.6v-2.8c-0.4,0.9-1.1,1.6-1.9,2.1c-0.9,0.6-2,0.9-3.1,0.9c-1.1,0-2.2-0.3-3.1-0.8c-0.9-0.5-1.7-1.3-2.1-2.3
	c-0.5-1.1-0.8-2.2-0.8-3.4C262.8,155.7,263.1,154.6,263.6,153.5z M273.3,154.2c-0.4-0.7-1-1.4-1.7-1.8c-0.7-0.4-1.5-0.6-2.4-0.6
	c-0.8,0-1.7,0.2-2.4,0.6c-0.7,0.4-1.3,1-1.7,1.8c-0.8,1.7-0.8,3.7,0,5.4c0.4,0.7,1,1.4,1.7,1.8c1.5,0.8,3.3,0.8,4.8,0
	c0.7-0.4,1.3-1,1.7-1.8C274.1,157.9,274.1,155.9,273.3,154.2L273.3,154.2z"/>
<path class="st0" d="M289.7,150.6l-7.5,18.6h-1.7l2.5-6l-5.2-12.6h1.8l4.3,10.8l4.2-10.8H289.7z"/>
<path class="st0" d="M310.5,151.8c1,1.1,1.5,2.6,1.4,4.1v7.5h-1.6v-7.2c0.1-1.1-0.3-2.3-1-3.1c-0.7-0.7-1.7-1.1-2.7-1.1
	c-1.1,0-2.1,0.4-2.8,1.2c-0.8,1-1.2,2.2-1.1,3.4v6.9h-1.6v-7.2c0.1-1.1-0.3-2.3-1-3.1c-0.7-0.7-1.7-1.1-2.7-1.1
	c-1.1,0-2.1,0.4-2.9,1.2c-0.8,1-1.1,2.2-1.1,3.4v6.9h-1.6v-12.7h1.6v2.2c0.4-0.8,1-1.4,1.7-1.8c0.8-0.4,1.6-0.6,2.5-0.6
	c1,0,2,0.3,2.9,0.8c0.8,0.5,1.5,1.4,1.8,2.3c0.3-1,0.9-1.8,1.8-2.3c0.8-0.5,1.8-0.8,2.8-0.8C308.3,150.3,309.6,150.8,310.5,151.8z"
	/>
<path class="st0" d="M326.9,157.5h-10.5c0,0.9,0.3,1.7,0.7,2.5c0.4,0.7,1,1.2,1.6,1.5c0.7,0.3,1.4,0.5,2.2,0.5
	c0.9,0,1.9-0.2,2.7-0.8c0.7-0.5,1.2-1.2,1.4-2.1h1.7c-0.3,1.2-1,2.3-2,3c-1.1,0.8-2.4,1.2-3.8,1.2c-1.1,0-2.2-0.3-3.2-0.8
	c-0.9-0.5-1.7-1.3-2.2-2.3c-0.6-1.1-0.8-2.2-0.8-3.4c0-1.2,0.2-2.4,0.8-3.5c0.5-1,1.3-1.7,2.2-2.3c1-0.5,2.1-0.8,3.2-0.8
	c1.1,0,2.2,0.2,3.2,0.8c0.9,0.5,1.6,1.2,2.1,2.1c0.5,0.9,0.8,2,0.7,3C327,156.8,327,157.3,326.9,157.5z M324.8,153.8
	c-0.4-0.6-0.9-1.2-1.6-1.5c-0.7-0.3-1.5-0.5-2.2-0.5c-1.1,0-2.2,0.4-3.1,1.2c-0.9,0.9-1.4,2-1.4,3.3h8.9
	C325.4,155.4,325.2,154.6,324.8,153.8z"/>
<path class="st0" d="M339.6,151.8c1,1.1,1.5,2.6,1.4,4.1v7.5h-1.6v-7.2c0.1-1.1-0.3-2.3-1-3.1c-0.7-0.7-1.8-1.1-2.8-1.1
	c-1.1,0-2.2,0.4-2.9,1.2c-0.8,1-1.2,2.2-1.1,3.4v6.9H330v-12.7h1.6v2.2c0.4-0.8,1-1.4,1.7-1.8c0.8-0.4,1.7-0.6,2.6-0.6
	C337.3,150.3,338.6,150.8,339.6,151.8z"/>
<path class="st0" d="M346.7,152v7.9c-0.1,0.6,0.1,1.1,0.4,1.6c0.4,0.3,1,0.5,1.5,0.4h1.5v1.4h-1.7c-0.9,0.1-1.8-0.2-2.5-0.8
	c-0.6-0.7-0.9-1.7-0.8-2.6V152h-1.8v-1.4h1.8v-3.2h1.6v3.2h3.5v1.4L346.7,152z"/>
<path class="st0" d="M361.3,162.9c-0.8-0.3-1.4-0.9-1.9-1.6c-0.5-0.7-0.7-1.4-0.7-2.2h1.7c0.1,0.8,0.4,1.5,1,2.1
	c0.7,0.6,1.7,1,2.7,0.9c0.9,0,1.9-0.3,2.6-0.9c0.6-0.5,1-1.3,1-2.1c0-0.6-0.2-1.2-0.5-1.7c-0.4-0.4-0.8-0.7-1.3-1
	c-0.7-0.3-1.4-0.5-2.2-0.7c-0.9-0.2-1.7-0.5-2.6-0.9c-0.6-0.3-1.2-0.7-1.6-1.3c-0.5-0.7-0.7-1.5-0.7-2.4c0-0.8,0.2-1.6,0.6-2.2
	c0.5-0.7,1.1-1.2,1.8-1.5c0.9-0.4,1.8-0.6,2.7-0.6c1.3-0.1,2.6,0.3,3.6,1.1c0.9,0.7,1.5,1.7,1.6,2.8h-1.8c-0.1-0.7-0.5-1.3-1.1-1.8
	c-1.5-1-3.5-1-4.9,0c-0.7,0.5-1,1.3-1,2.1c0,0.6,0.2,1.2,0.5,1.6c0.4,0.4,0.8,0.7,1.3,1c0.7,0.3,1.4,0.5,2.2,0.7
	c0.9,0.2,1.7,0.5,2.5,0.9c0.7,0.3,1.2,0.7,1.6,1.3c0.5,0.7,0.7,1.5,0.7,2.4c0,0.8-0.2,1.5-0.6,2.1c-0.4,0.7-1,1.3-1.8,1.6
	c-0.9,0.4-1.9,0.6-2.8,0.6C363.1,163.4,362.2,163.2,361.3,162.9z"/>
<path class="st0" d="M372.4,147.9c-0.2-0.2-0.4-0.5-0.4-0.9c0-0.3,0.1-0.6,0.4-0.8c0.2-0.2,0.5-0.3,0.8-0.3c0.3,0,0.6,0.1,0.8,0.3
	c0.2,0.2,0.4,0.5,0.3,0.8c0,0.7-0.5,1.2-1.1,1.2c0,0,0,0,0,0C372.9,148.2,372.6,148.1,372.4,147.9z M374.1,150.6v12.7h-1.6v-12.7
	L374.1,150.6z"/>
<path class="st0" d="M396.4,151.8c1,1.1,1.5,2.6,1.4,4.1v7.5h-1.6v-7.2c0.1-1.1-0.3-2.3-1-3.1c-0.7-0.7-1.7-1.1-2.7-1.1
	c-1.1,0-2.1,0.4-2.9,1.2c-0.8,1-1.1,2.2-1.1,3.4v6.9H387v-7.2c0.1-1.1-0.3-2.3-1-3.1c-0.7-0.7-1.7-1.1-2.7-1.1
	c-1.1,0-2.1,0.4-2.9,1.2c-0.8,1-1.1,2.2-1.1,3.4v6.9h-1.6v-12.7h1.6v2.2c0.4-0.8,1-1.4,1.7-1.8c0.8-0.4,1.6-0.6,2.5-0.6
	c1,0,2,0.3,2.9,0.8c0.8,0.5,1.5,1.4,1.8,2.3c0.3-1,0.9-1.8,1.8-2.3c0.8-0.5,1.8-0.8,2.8-0.8C394.2,150.3,395.5,150.8,396.4,151.8z"
	/>
<path class="st0" d="M404.9,151.3c0.9-0.6,2-0.9,3.1-0.8c1.1,0,2.1,0.3,3.1,0.8c0.9,0.5,1.7,1.3,2.1,2.3c0.5,1.1,0.8,2.2,0.8,3.4
	c0,1.2-0.2,2.4-0.8,3.4c-0.5,1-1.2,1.8-2.1,2.3c-0.9,0.5-2,0.8-3.1,0.8c-1.1,0-2.2-0.3-3.1-0.9c-0.8-0.5-1.5-1.2-1.9-2.1v8.8h-1.6
	v-18.7h1.6v2.8C403.4,152.5,404.1,151.8,404.9,151.3z M411.8,154.2c-0.4-0.7-1-1.3-1.7-1.8c-0.7-0.4-1.6-0.6-2.4-0.6
	c-0.8,0-1.7,0.2-2.4,0.6c-0.7,0.4-1.3,1-1.7,1.8c-0.8,1.7-0.8,3.7,0,5.4c0.4,0.7,1,1.4,1.7,1.8c1.5,0.8,3.3,0.8,4.8,0
	c0.7-0.4,1.3-1,1.7-1.8C412.6,157.9,412.6,155.9,411.8,154.2L411.8,154.2z"/>
<path class="st0" d="M418.7,146.1v17.2H417v-17.2H418.7z"/>
<path class="st0" d="M422.3,147.9c-0.2-0.2-0.4-0.5-0.4-0.9c0-0.3,0.1-0.6,0.4-0.8c0.2-0.2,0.5-0.3,0.8-0.3c0.3,0,0.6,0.1,0.8,0.3
	c0.2,0.2,0.4,0.5,0.3,0.8c0,0.7-0.5,1.2-1.1,1.2c0,0,0,0,0,0C422.8,148.2,422.5,148.1,422.3,147.9z M424,150.6v12.7h-1.6v-12.7
	L424,150.6z"/>
<path class="st0" d="M429.7,150.6h7.1v12.7h-1.6V152h-5.5v11.3h-1.6V152h-1.7v-1.4h1.7v-0.9c-0.1-1.1,0.3-2.2,1-3
	c1-0.7,2.2-1.1,3.4-1v1.4c-0.8-0.1-1.6,0.1-2.2,0.6c-0.5,0.6-0.7,1.3-0.6,2L429.7,150.6z M436.8,146.2c0.2,0.2,0.4,0.5,0.4,0.8
	c0,0.3-0.1,0.6-0.4,0.9c-0.2,0.2-0.5,0.4-0.8,0.4c-0.3,0-0.6-0.1-0.8-0.4c-0.2-0.2-0.4-0.5-0.4-0.9c0-0.3,0.1-0.6,0.4-0.8
	c0.2-0.2,0.5-0.3,0.8-0.3C436.3,145.8,436.6,146,436.8,146.2L436.8,146.2z"/>
<path class="st0" d="M451.8,157.5h-10.5c0,0.9,0.3,1.7,0.7,2.5c0.4,0.7,1,1.2,1.7,1.5c0.7,0.3,1.4,0.5,2.2,0.5
	c0.9,0,1.9-0.2,2.7-0.8c0.7-0.5,1.2-1.2,1.4-2.1h1.7c-0.3,1.2-1,2.3-2,3c-1.1,0.8-2.4,1.2-3.8,1.2c-1.1,0-2.2-0.3-3.2-0.8
	c-0.9-0.5-1.7-1.3-2.2-2.3c-0.6-1.1-0.8-2.2-0.8-3.4c0-1.2,0.2-2.4,0.8-3.5c0.5-1,1.3-1.7,2.2-2.3c1-0.5,2.1-0.8,3.2-0.8
	c1.1,0,2.2,0.2,3.2,0.8c0.9,0.5,1.6,1.2,2.1,2.1c0.5,0.9,0.7,2,0.7,3C451.8,156.8,451.8,157.3,451.8,157.5z M449.6,153.8
	c-0.4-0.6-0.9-1.2-1.6-1.5c-0.7-0.3-1.5-0.5-2.2-0.5c-1.1,0-2.2,0.4-3.1,1.2c-0.9,0.9-1.4,2-1.4,3.3h8.9
	C450.2,155.4,450,154.5,449.6,153.8L449.6,153.8z"/>
<path class="st0" d="M454.8,153.5c0.5-0.9,1.2-1.7,2.2-2.3c1-0.5,2-0.8,3.1-0.8c1.1,0,2.1,0.3,3,0.8c0.9,0.5,1.6,1.2,2,2.1v-7.2h1.6
	v17.2H465v-2.8c-0.4,0.9-1.1,1.7-1.9,2.2c-0.9,0.6-2,0.9-3.1,0.9c-1.1,0-2.2-0.3-3.1-0.8c-0.9-0.6-1.7-1.4-2.2-2.4
	c-0.5-1.1-0.8-2.2-0.8-3.4C454,155.7,454.2,154.5,454.8,153.5z M464.4,154.2c-0.4-0.7-1-1.4-1.7-1.8c-0.7-0.4-1.5-0.6-2.4-0.6
	c-0.8,0-1.7,0.2-2.4,0.6c-0.7,0.4-1.3,1-1.7,1.8c-0.8,1.7-0.8,3.7,0,5.4c0.4,0.7,1,1.4,1.7,1.8c1.5,0.8,3.3,0.8,4.8,0
	c0.7-0.4,1.3-1,1.7-1.8C465.2,157.9,465.2,155.9,464.4,154.2L464.4,154.2z"/>
<path class="st0" d="M470.9,163c-0.2-0.2-0.3-0.5-0.3-0.9c0-0.6,0.5-1.2,1.1-1.2c0,0,0,0,0,0c0.3,0,0.6,0.1,0.8,0.3
	c0.2,0.2,0.4,0.5,0.3,0.8c0,0.3-0.1,0.6-0.3,0.9c-0.2,0.2-0.5,0.4-0.8,0.4C471.4,163.4,471.1,163.2,470.9,163z M472.6,147l-0.2,11.9
	H471l-0.2-11.9H472.6z"/>
</svg>
